<?xml version="1.0" standalone="no"?>
<!DOCTYPE svg PUBLIC "-//W3C//DTD SVG 20010904//EN"
 "http://www.w3.org/TR/2001/REC-SVG-20010904/DTD/svg10.dtd">
<svg version="1.0" xmlns="http://www.w3.org/2000/svg"
 width="1280.000000pt" height="873.000000pt" viewBox="0 0 1280.000000 873.000000"
 preserveAspectRatio="xMidYMid meet">
<metadata>
Created by potrace 1.15, written by Peter Selinger 2001-2017
</metadata>
<g transform="translate(0.000000,873.000000) scale(0.100000,-0.100000)"
fill="#FFFFFF" stroke="none">
<path d="M3618 6260 l-373 -298 -90 -173 c-116 -223 -188 -345 -229 -389 -18
-19 -52 -62 -74 -96 -52 -78 -95 -115 -186 -160 -41 -19 -140 -86 -220 -147
-81 -62 -181 -136 -223 -165 l-76 -54 -91 6 c-50 3 -203 9 -340 12 -245 6
-249 6 -235 -13 25 -36 263 -303 270 -303 3 0 151 41 328 90 177 50 328 90
336 90 7 0 146 -83 308 -185 l294 -185 934 28 934 29 110 -116 c60 -64 139
-146 175 -184 l65 -67 360 -42 360 -41 465 112 c413 100 499 117 774 157 170
24 320 44 334 44 13 0 100 -40 192 -90 160 -85 180 -93 377 -147 l208 -57 219
-134 219 -133 232 -59 c236 -59 290 -69 630 -115 451 -60 645 -70 772 -38 52
13 111 17 253 17 208 0 347 -19 563 -79 67 -18 123 -32 124 -31 2 1 -343 268
-765 593 l-767 591 -180 188 c-254 265 -307 324 -401 451 -109 147 -208 258
-276 311 -65 50 -100 61 -418 132 l-222 50 -142 -77 c-293 -159 -444 -257
-495 -322 -54 -69 -417 -401 -621 -570 -217 -180 -338 -269 -422 -312 -54 -27
-65 -29 -180 -29 -268 0 -741 14 -723 21 11 4 85 17 165 29 337 51 651 117
780 164 135 49 139 52 290 227 l39 46 -122 149 c-114 138 -128 151 -202 192
-162 90 -182 106 -356 294 l-34 36 -224 -84 -223 -85 -180 -145 c-160 -130
-453 -329 -819 -556 -41 -25 -69 -31 -234 -53 -104 -14 -195 -25 -204 -25 -9
0 42 24 113 52 71 28 207 94 301 148 168 94 178 102 373 280 111 101 199 186
197 190 -2 3 -110 75 -240 160 l-236 155 -51 85 c-71 119 -123 194 -189 275
-31 39 -122 159 -201 269 l-143 198 -157 93 -157 94 -373 -299z"/>
<path d="M5856 6549 c-32 -5 -61 -10 -63 -12 -2 -2 23 -21 54 -42 32 -21 94
-66 138 -101 73 -57 82 -68 98 -118 17 -52 22 -58 83 -92 l66 -37 -29 -23
c-15 -13 -31 -23 -35 -24 -7 0 -30 -71 -25 -76 2 -3 204 7 510 23 l119 6 57
-57 58 -58 59 7 c92 10 284 46 284 54 0 8 -82 61 -215 139 l-110 64 -208 -18
c-290 -25 -272 -32 -452 173 l-137 158 -82 22 c-91 24 -89 24 -170 12z"/>
<path d="M5262 5927 c-13 -53 -26 -106 -29 -117 -5 -18 0 -20 39 -20 l44 0
-13 103 c-7 56 -14 109 -15 117 -2 8 -14 -30 -26 -83z"/>
<path d="M4972 5982 c2 -4 23 -54 47 -110 43 -100 45 -102 78 -102 18 0 33 3
33 6 0 9 -150 214 -156 214 -3 0 -4 -4 -2 -8z"/>
<path d="M5493 5830 l-42 -70 44 0 45 0 0 70 c0 39 -1 70 -3 70 -1 0 -21 -31
-44 -70z"/>
<path d="M5726 5766 l-79 -22 32 -27 c18 -15 36 -27 40 -27 4 0 29 23 56 50
27 28 45 49 40 49 -6 -1 -45 -11 -89 -23z"/>
<path d="M5195 5695 c-27 -7 -62 -16 -76 -19 -23 -5 -29 -15 -42 -66 -8 -33
-12 -62 -8 -64 3 -2 111 -63 239 -135 l233 -132 117 67 c64 36 118 67 120 69
8 8 -87 152 -137 207 l-60 65 -123 11 c-149 15 -198 14 -263 -3z"/>
<path d="M5760 5606 c0 -2 18 -15 40 -30 l40 -26 53 30 52 30 -92 0 c-51 0
-93 -2 -93 -4z"/>
<path d="M2250 4553 c-47 -3 -95 -15 -172 -46 -60 -23 -108 -45 -108 -48 0 -3
53 -11 117 -18 96 -10 126 -17 173 -42 89 -47 450 -330 492 -385 20 -27 62
-73 92 -103 l55 -54 173 -9 c95 -4 183 -9 195 -11 16 -1 -310 -133 -529 -213
-17 -6 -18 6 -18 150 0 117 -3 158 -12 160 -7 3 -62 8 -123 13 l-109 8 -19
110 c-10 60 -19 110 -20 112 -1 1 -52 10 -113 21 l-111 18 -120 87 c-67 48
-124 87 -127 87 -3 0 30 -51 74 -114 48 -69 101 -162 136 -237 l56 -124 156
-158 c146 -146 165 -162 263 -215 l107 -57 168 9 c246 13 432 -9 649 -75 159
-48 162 -49 460 -75 l300 -26 199 -65 c169 -56 206 -72 250 -107 28 -23 76
-62 106 -87 l55 -45 255 -17 c201 -14 310 -27 515 -63 l260 -45 235 -111 c227
-108 241 -116 427 -256 l193 -144 261 -84 261 -83 242 -16 c132 -8 256 -17
275 -20 90 -12 -6 13 -295 76 -174 38 -319 71 -322 74 -3 2 44 57 103 120 59
64 106 117 104 119 -2 2 -152 22 -334 45 -181 23 -347 44 -367 47 l-37 6 69
139 c39 76 70 143 70 148 0 4 -99 -32 -221 -81 -122 -49 -223 -88 -225 -85 -2
2 39 66 92 143 l95 139 -423 5 -423 5 258 89 c238 82 298 106 230 92 -53 -11
-695 -87 -699 -83 -3 2 79 57 182 123 102 65 182 119 178 121 -5 1 -153 -33
-329 -76 -176 -43 -322 -77 -324 -75 -2 2 29 56 69 120 l72 117 -54 -39 c-29
-21 -109 -80 -178 -131 l-125 -93 -20 25 c-57 69 -270 305 -275 305 -3 0 -21
-47 -40 -105 -19 -58 -36 -105 -39 -104 -4 0 -62 86 -130 190 -68 104 -127
189 -131 189 -5 0 -80 -56 -168 -125 -89 -69 -163 -125 -165 -125 -3 0 -8 61
-12 135 -4 74 -9 135 -12 135 -5 0 -124 -84 -327 -230 -67 -49 -68 -55 35 117
39 64 69 116 67 117 -2 1 -178 -19 -393 -44 -214 -26 -391 -46 -393 -44 -2 1
67 38 152 83 l155 81 116 0 c71 0 222 -13 396 -35 155 -19 309 -35 343 -35 38
1 124 17 231 44 l170 44 210 -149 210 -149 337 6 336 7 114 -51 c159 -72 231
-88 487 -112 124 -11 226 -21 227 -23 18 -24 197 -253 199 -255 1 -1 60 -9
131 -17 222 -25 214 -23 214 -49 0 -37 48 -216 65 -242 10 -16 31 -26 72 -34
224 -45 305 -78 345 -143 32 -50 58 -143 58 -204 0 -38 3 -43 23 -43 12 1 267
23 567 49 l545 49 96 64 c182 122 223 138 388 160 80 10 380 57 666 104 l520
86 80 61 c287 220 401 312 391 315 -13 3 -334 -36 -528 -64 -120 -17 -192 -13
-633 31 -132 14 -321 32 -420 40 -226 20 -341 38 -430 68 -267 92 -358 134
-820 383 -308 166 -487 257 -520 264 -154 32 -236 38 -442 29 -242 -11 -285
-18 -823 -149 l-375 -92 -232 1 -232 2 -183 82 c-143 65 -210 102 -305 169
-67 48 -130 91 -140 96 -10 6 -117 37 -238 70 l-220 60 -155 -14 c-267 -23
-335 -33 -462 -70 -183 -52 -257 -64 -412 -64 l-140 0 -180 71 c-178 70 -181
72 -262 147 -57 54 -118 98 -201 145 -129 72 -110 68 -273 60z"/>
</g>
</svg>
